<?xml version="1.0" encoding="UTF-8"?>
<!DOCTYPE svg PUBLIC "-//W3C//DTD SVG 1.1//EN" "http://www.w3.org/Graphics/SVG/1.1/DTD/svg11.dtd">
<svg xmlns="http://www.w3.org/2000/svg" version="1.1" width="558px" height="500px" style="shape-rendering:geometricPrecision; text-rendering:geometricPrecision; image-rendering:optimizeQuality; fill-rule:evenodd; clip-rule:evenodd" xmlns:xlink="http://www.w3.org/1999/xlink">
<g><path style="opacity:1" fill="#20222b" d="M -0.5,-0.5 C 185.5,-0.5 371.5,-0.5 557.5,-0.5C 557.5,0.166667 557.5,0.833333 557.5,1.5C 371.5,1.5 185.5,1.5 -0.5,1.5C -0.5,0.833333 -0.5,0.166667 -0.5,-0.5 Z"/></g>
<g><path style="opacity:1" fill="#fefdfe" d="M -0.5,1.5 C 185.5,1.5 371.5,1.5 557.5,1.5C 557.5,167.5 557.5,333.5 557.5,499.5C 371.5,499.5 185.5,499.5 -0.5,499.5C -0.5,333.5 -0.5,167.5 -0.5,1.5 Z"/></g>
<g><path style="opacity:1" fill="#c52d5e" d="M 310.5,16.5 C 321.819,17.1444 325.653,22.811 322,33.5C 317.183,37.9326 312.016,38.4326 306.5,35C 300.484,27.2477 301.817,21.081 310.5,16.5 Z"/></g>
<g><path style="opacity:1" fill="#c4295c" d="M 396.5,16.5 C 408.503,16.3223 413.336,21.989 411,33.5C 409.833,36 408,37.8333 405.5,39C 393.165,40.997 387.665,35.8304 389,23.5C 390.742,20.2543 393.242,17.921 396.5,16.5 Z"/></g>
<g><path style="opacity:1" fill="#c4295c" d="M 368.5,22.5 C 380.423,22.7398 384.423,28.4065 380.5,39.5C 373.195,45.5278 367.028,44.5278 362,36.5C 360.669,30.1632 362.836,25.4965 368.5,22.5 Z"/></g>
<g><path style="opacity:1" fill="#c4285c" d="M 344.5,33.5 C 354.659,32.1581 358.826,36.4914 357,46.5C 351.333,53.1667 345.667,53.1667 340,46.5C 338.379,40.9227 339.879,36.5894 344.5,33.5 Z"/></g>
<g><path style="opacity:1" fill="#c52d5e" d="M 294.5,36.5 C 304.462,37.1094 307.962,42.1094 305,51.5C 298.464,57.3523 292.797,56.6857 288,49.5C 286.476,43.2151 288.642,38.8817 294.5,36.5 Z"/></g>
<g><path style="opacity:1" fill="#c52b5e" d="M 326.5,46.5 C 331.347,45.8404 335.181,47.5071 338,51.5C 338.344,59.4873 334.511,62.9873 326.5,62C 322.139,59.7742 320.639,56.2742 322,51.5C 323.025,49.313 324.525,47.6464 326.5,46.5 Z"/></g>
<g><path style="opacity:1" fill="#c52c5e" d="M 395.5,52.5 C 399.747,52.1778 403.747,53.0111 407.5,55C 413.558,63.3945 411.225,68.2278 400.5,69.5C 391.757,68.2999 388.59,63.6333 391,55.5C 392.652,54.6006 394.152,53.6006 395.5,52.5 Z"/></g>
<g><path style="opacity:1" fill="#c42a5d" d="M 423.5,53.5 C 434.739,52.5816 440.239,57.5816 440,68.5C 435.86,73.2114 430.694,74.7114 424.5,73C 417.951,70.7338 415.451,66.2338 417,59.5C 418.494,56.6865 420.66,54.6865 423.5,53.5 Z"/></g>
<g><path style="opacity:1" fill="#c52b5e" d="M 370.5,56.5 C 375.765,55.5706 380.265,56.9039 384,60.5C 384.979,67.1958 381.979,70.5291 375,70.5C 367.582,69.9438 364.915,66.2771 367,59.5C 368.518,58.8366 369.685,57.8366 370.5,56.5 Z"/></g>
<g><path style="opacity:1" fill="#c52c5e" d="M 282.5,57.5 C 290.545,57.0476 294.378,60.7143 294,68.5C 291.647,73.4264 287.814,75.2598 282.5,74C 277.931,71.4586 276.431,67.6253 278,62.5C 279.193,60.5029 280.693,58.8362 282.5,57.5 Z"/></g>
<g><path style="opacity:1" fill="#c52b5e" d="M 312.5,61.5 C 319.669,60.5131 323.169,63.5131 323,70.5C 318.748,76.6531 314.081,76.9865 309,71.5C 308.333,69.5 308.333,67.5 309,65.5C 310.376,64.2949 311.542,62.9616 312.5,61.5 Z"/></g>
<g><path style="opacity:1" fill="#c42a5d" d="M 454.5,61.5 C 466.384,61.302 472.217,66.9686 472,78.5C 464.829,88.2472 456.829,88.9139 448,80.5C 443.055,71.5209 445.222,65.1876 454.5,61.5 Z"/></g>
<g><path style="opacity:1" fill="#c62f60" d="M 352.5,63.5 C 356.803,62.7962 360.303,64.1295 363,67.5C 363.682,71.1802 362.182,73.6802 358.5,75C 354.091,76.2618 350.257,75.4285 347,72.5C 346.289,67.9192 348.122,64.9192 352.5,63.5 Z"/></g>
<g><path style="opacity:1" fill="#703178" d="M 151.5,140.5 C 150.167,140.5 148.833,140.5 147.5,140.5C 147.5,138.5 147.5,136.5 147.5,134.5C 148.544,112.498 149.711,90.4981 151,68.5C 156.24,65.008 159.073,66.3414 159.5,72.5C 157.29,87.4415 156.123,102.442 156,117.5C 158.127,111.416 161.627,106.249 166.5,102C 172.134,99.2243 176.634,100.391 180,105.5C 180.044,115.168 180.044,124.835 180,134.5C 182.776,135.648 185.443,135.314 188,133.5C 188.374,134.416 188.874,135.25 189.5,136C 184.595,140.989 179.095,142.156 173,139.5C 171.963,135.922 171.463,132.256 171.5,128.5C 172.183,122.168 172.349,115.834 172,109.5C 168.518,107.923 165.852,108.923 164,112.5C 158.239,120.95 155.405,130.284 155.5,140.5C 154.167,140.5 152.833,140.5 151.5,140.5 Z"/></g>
<g><path style="opacity:1" fill="#c63161" d="M 336.5,73.5 C 339.602,73.154 342.435,73.8207 345,75.5C 346.04,81.3029 343.54,84.3029 337.5,84.5C 329.878,81.6472 329.544,77.9806 336.5,73.5 Z"/></g>
<g><path style="opacity:1" fill="#6e2e77" d="M 79.5,131.5 C 78.5386,133.265 78.2053,135.265 78.5,137.5C 85.3543,137.824 92.021,137.491 98.5,136.5C 99.7899,135.942 100.623,134.942 101,133.5C 101.497,131.19 101.663,128.857 101.5,126.5C 103.5,126.5 105.5,126.5 107.5,126.5C 107.913,132.037 107.08,137.37 105,142.5C 104.097,143.701 102.931,144.535 101.5,145C 90.4874,144.376 79.4874,144.543 68.5,145.5C 70.2472,124.88 70.9139,104.213 70.5,83.5C 67.8333,83.5 65.1667,83.5 62.5,83.5C 62.5,81.5 62.5,79.5 62.5,77.5C 76.1506,76.4712 89.8172,76.3045 103.5,77C 104.593,82.7753 104.593,88.6086 103.5,94.5C 101.833,94.5 100.167,94.5 98.5,94.5C 98.6646,91.4816 98.498,88.4816 98,85.5C 97.5,85 97,84.5 96.5,84C 91.1771,83.5006 85.8437,83.334 80.5,83.5C 80.5,91.1667 80.5,98.8333 80.5,106.5C 86.3818,106.768 92.2151,106.434 98,105.5C 99.8853,105.862 100.719,107.029 100.5,109C 100.192,111.975 98.5253,113.641 95.5,114C 90.1387,114.609 84.8054,114.442 79.5,113.5C 79.5,119.5 79.5,125.5 79.5,131.5 Z"/></g>
<g><path style="opacity:1" fill="#c73261" d="M 303.5,76.5 C 312.369,76.5166 314.703,80.35 310.5,88C 303.388,90.5545 299.888,88.0545 300,80.5C 301.376,79.2949 302.542,77.9616 303.5,76.5 Z"/></g>
<g><path style="opacity:1" fill="#c52b5d" d="M 276.5,78.5 C 286.525,77.7314 289.525,81.8981 285.5,91C 275.937,95.1125 271.771,91.9459 273,81.5C 274.145,80.3636 275.312,79.3636 276.5,78.5 Z"/></g>
<g><path style="opacity:1" fill="#c4285c" d="M 483.5,78.5 C 495.288,76.9706 502.288,81.9706 504.5,93.5C 501.399,106.384 493.732,110.217 481.5,105C 474.923,100.441 472.757,94.2743 475,86.5C 477.074,82.9231 479.907,80.2565 483.5,78.5 Z"/></g>
<g><path style="opacity:1" fill="#c73463" d="M 325.5,84.5 C 333.543,84.0028 335.21,86.8361 330.5,93C 326.458,95.4091 323.458,94.5758 321.5,90.5C 321.866,87.7441 323.2,85.7441 325.5,84.5 Z"/></g>
<g><path style="opacity:1" fill="#c52b5e" d="M 298.5,91.5 C 306.022,91.6698 308.022,95.0031 304.5,101.5C 297.55,104.046 294.717,101.713 296,94.5C 297.045,93.6266 297.878,92.6266 298.5,91.5 Z"/></g>
<g><path style="opacity:1" fill="#ed3170" d="M 413.5,95.5 C 423.492,94.3271 427.992,98.6604 427,108.5C 422.47,115.588 417.137,116.255 411,110.5C 407.253,104.734 408.087,99.7342 413.5,95.5 Z"/></g>
<g><path style="opacity:1" fill="#c83664" d="M 318.5,95.5 C 327.476,97.1413 327.809,100.141 319.5,104.5C 317.133,104.487 315.8,103.32 315.5,101C 315.863,98.8077 316.863,96.9744 318.5,95.5 Z"/></g>
<g><path style="opacity:1" fill="#ec2e6e" d="M 392.5,96.5 C 401.671,96.1754 405.171,100.509 403,109.5C 400.442,113.212 396.942,114.378 392.5,113C 387.845,110.103 386.345,105.937 388,100.5C 389.397,98.9297 390.897,97.5964 392.5,96.5 Z"/></g>
<g><path style="opacity:1" fill="#c52b5e" d="M 274.5,97.5 C 282.163,96.0423 285.663,99.0423 285,106.5C 280.965,111.364 276.632,111.698 272,107.5C 270.861,103.579 271.695,100.246 274.5,97.5 Z"/></g>
<g><path style="opacity:1" fill="#ed306f" d="M 438.5,99.5 C 451.099,99.2424 455.266,104.909 451,116.5C 443.461,122.574 437.461,121.24 433,112.5C 432.114,106.946 433.947,102.613 438.5,99.5 Z"/></g>
<g><path style="opacity:1" fill="#703178" d="M 126.5,100.5 C 131.695,99.9441 136.528,100.944 141,103.5C 143.827,108.66 142.66,112.327 137.5,114.5C 136.558,114.392 135.725,114.059 135,113.5C 133.114,104.006 128.781,103.006 122,110.5C 117.553,119.86 119.053,128.026 126.5,135C 131.589,135.793 135.923,134.293 139.5,130.5C 140.72,130.887 141.387,131.72 141.5,133C 136.105,141.131 128.771,143.464 119.5,140C 110.289,130.846 109.123,120.679 116,109.5C 119.103,105.886 122.603,102.886 126.5,100.5 Z"/></g>
<g><path style="opacity:1" fill="#6f3077" d="M 203.5,100.5 C 216.365,99.0389 223.031,104.706 223.5,117.5C 223.588,134.585 215.254,142.418 198.5,141C 192.389,136.874 189.389,131.04 189.5,123.5C 190.114,113.248 194.781,105.582 203.5,100.5 Z"/></g>
<g><path style="opacity:1" fill="#ed3170" d="M 373.5,101.5 C 380.465,101.961 383.632,105.628 383,112.5C 378.829,118.729 374.163,119.062 369,113.5C 367.309,108.131 368.809,104.131 373.5,101.5 Z"/></g>
<g><path style="opacity:1" fill="#faf7fa" d="M 204.5,105.5 C 209.84,105.665 213.34,108.332 215,113.5C 216.447,121.156 215.28,128.322 211.5,135C 207.612,137.223 204.112,136.723 201,133.5C 197.185,126.824 196.518,119.824 199,112.5C 199.967,109.379 201.8,107.046 204.5,105.5 Z"/></g>
<g><path style="opacity:1" fill="#c63061" d="M 296.5,105.5 C 302.989,105.156 304.989,107.99 302.5,114C 296.744,116.569 293.911,114.736 294,108.5C 295.045,107.627 295.878,106.627 296.5,105.5 Z"/></g>
<g><path style="opacity:1" fill="#c73362" d="M 316.5,105.5 C 320.829,106.982 321.496,109.482 318.5,113C 313.9,114.583 312.066,113.083 313,108.5C 314.145,107.364 315.312,106.364 316.5,105.5 Z"/></g>
<g><path style="opacity:1" fill="#ec2b6d" d="M 463.5,109.5 C 475.319,108.485 480.486,113.818 479,125.5C 474.733,132.876 468.899,134.376 461.5,130C 455.719,122.43 456.386,115.597 463.5,109.5 Z"/></g>
<g><path style="opacity:1" fill="#ed3070" d="M 355.5,110.5 C 364.882,110.436 367.549,114.603 363.5,123C 354.738,125.91 351.238,122.744 353,113.5C 354.045,112.627 354.878,111.627 355.5,110.5 Z"/></g>
<g><path style="opacity:1" fill="#c42a5d" d="M 277.5,114.5 C 286.818,114.655 288.818,118.488 283.5,126C 276,127.833 273.167,125 275,117.5C 276.045,116.627 276.878,115.627 277.5,114.5 Z"/></g>
<g><path style="opacity:1" fill="#c93c67" d="M 314.5,115.5 C 318.903,114.893 320.236,116.56 318.5,120.5C 315.761,123.464 313.761,123.131 312.5,119.5C 312.752,117.927 313.418,116.594 314.5,115.5 Z"/></g>
<g><path style="opacity:1" fill="#c93b66" d="M 298.5,117.5 C 304.238,118.381 305.571,121.214 302.5,126C 296.333,127.833 294.167,125.667 296,119.5C 296.995,118.934 297.828,118.267 298.5,117.5 Z"/></g>
<g><path style="opacity:1" fill="#ed3271" d="M 342.5,121.5 C 349.164,121 352.331,124 352,130.5C 348.61,134.032 344.943,134.366 341,131.5C 338.729,127.697 339.229,124.363 342.5,121.5 Z"/></g>
<g><path style="opacity:1" fill="#ca3e6a" d="M 315.5,123.5 C 320.587,123.284 321.587,125.118 318.5,129C 314.537,129.118 313.537,127.284 315.5,123.5 Z"/></g>
<g><path style="opacity:1" fill="#ed3070" d="M 387.5,125.5 C 396.522,124.833 399.189,128.5 395.5,136.5C 388.564,138.964 385.064,136.63 385,129.5C 385.662,128.016 386.496,126.683 387.5,125.5 Z"/></g>
<g><path style="opacity:1" fill="#ec2e6e" d="M 404.5,125.5 C 413.33,124.162 416.83,127.829 415,136.5C 410.368,140.698 406.035,140.364 402,135.5C 400.861,131.579 401.695,128.246 404.5,125.5 Z"/></g>
<g><path style="opacity:1" fill="#ec2e6e" d="M 490.5,125.5 C 502.651,125.485 507.818,131.485 506,143.5C 501.293,151.624 494.793,153.457 486.5,149C 478.872,139.55 480.206,131.717 490.5,125.5 Z"/></g>
<g><path style="opacity:1" fill="#ed3471" d="M 372.5,128.5 C 381.487,127.665 383.82,131.165 379.5,139C 371.333,139.512 369,136.012 372.5,128.5 Z"/></g>
<g><path style="opacity:1" fill="#c73262" d="M 282.5,129.5 C 290.244,129.048 292.577,132.215 289.5,139C 282.752,141.909 279.586,139.743 280,132.5C 281.045,131.627 281.878,130.627 282.5,129.5 Z"/></g>
<g><path style="opacity:1" fill="#c83665" d="M 300.5,128.5 C 306.488,128.664 307.821,131.164 304.5,136C 298.403,136.147 297.07,133.647 300.5,128.5 Z"/></g>
<g><path style="opacity:1" fill="#ec2e6e" d="M 423.5,129.5 C 434.991,129.486 437.991,134.486 432.5,144.5C 422.917,147.087 418.75,143.42 420,133.5C 421.376,132.295 422.542,130.962 423.5,129.5 Z"/></g>
<g><path style="opacity:1" fill="#c93c68" d="M 319.5,129.5 C 322.084,130.048 323.084,131.715 322.5,134.5C 317.516,134.856 316.516,133.189 319.5,129.5 Z"/></g>
<g><path style="opacity:1" fill="#9f75a5" d="M 79.5,131.5 C 79.5,133.167 79.5,134.833 79.5,136.5C 85.8333,136.5 92.1667,136.5 98.5,136.5C 92.021,137.491 85.3543,137.824 78.5,137.5C 78.2053,135.265 78.5386,133.265 79.5,131.5 Z"/></g>
<g><path style="opacity:1" fill="#ec2e6f" d="M 333.5,133.5 C 341.302,133.787 343.302,137.287 339.5,144C 330.352,144.536 328.352,141.036 333.5,133.5 Z"/></g>
<g><path style="opacity:1" fill="#ed3271" d="M 361.5,133.5 C 368.341,134.016 370.007,137.182 366.5,143C 358.408,143.09 356.741,139.923 361.5,133.5 Z"/></g>
<g><path style="opacity:1" fill="#c83965" d="M 304.5,137.5 C 310.016,137.473 311.349,139.64 308.5,144C 303.791,144.082 302.458,141.915 304.5,137.5 Z"/></g>
<g><path style="opacity:1" fill="#ed3070" d="M 443.5,138.5 C 452.987,137.819 457.154,142.153 456,151.5C 453.647,156.426 449.814,158.26 444.5,157C 438.975,154.081 437.142,149.581 439,143.5C 440.025,141.313 441.525,139.646 443.5,138.5 Z"/></g>
<g><path style="opacity:1" fill="#bc9ec0" d="M 147.5,134.5 C 147.5,136.5 147.5,138.5 147.5,140.5C 148.833,140.5 150.167,140.5 151.5,140.5C 150.081,141.451 148.415,141.784 146.5,141.5C 146.198,138.941 146.532,136.607 147.5,134.5 Z"/></g>
<g><path style="opacity:1" fill="#ee3a75" d="M 351.5,140.5 C 357.803,140.924 359.469,143.757 356.5,149C 349.416,149.475 347.749,146.642 351.5,140.5 Z"/></g>
<g><path style="opacity:1" fill="#703278" d="M 320.5,141.5 C 325.814,140.487 328.148,142.654 327.5,148C 325.201,161.757 324.034,175.591 324,189.5C 330.328,180.753 338.828,176.42 349.5,176.5C 349.149,179.238 348.482,181.904 347.5,184.5C 340.581,184.065 334.914,186.398 330.5,191.5C 332.973,197.779 335.973,203.779 339.5,209.5C 340.723,210.614 342.056,210.781 343.5,210C 345,208.5 346.5,207 348,205.5C 349.983,206.766 350.983,208.432 351,210.5C 348.131,213.704 344.965,216.537 341.5,219C 336.577,219.955 333.077,218.121 331,213.5C 327.784,207.736 325.117,201.736 323,195.5C 321.689,203.105 321.189,210.772 321.5,218.5C 318.833,218.5 316.167,218.5 313.5,218.5C 314.905,196.164 316.405,173.831 318,151.5C 318.026,147.861 318.86,144.528 320.5,141.5 Z"/></g>
<g><path style="opacity:1" fill="#ed3673" d="M 380.5,147.5 C 387.363,147.474 389.363,150.307 386.5,156C 379.603,156.343 377.603,153.51 380.5,147.5 Z"/></g>
<g><path style="opacity:1" fill="#ed3873" d="M 392.5,147.5 C 399.388,147.703 402.055,151.036 400.5,157.5C 397.207,158.969 394.373,158.302 392,155.5C 389.893,152.629 390.059,149.963 392.5,147.5 Z"/></g>
<g><path style="opacity:1" fill="#ec2c6d" d="M 513.5,149.5 C 526.47,149.302 532.303,155.636 531,168.5C 527.219,176.305 521.053,179.138 512.5,177C 504.753,172.506 502.253,166.006 505,157.5C 507.074,153.923 509.907,151.256 513.5,149.5 Z"/></g>
<g><path style="opacity:1" fill="#ed3a75" d="M 369.5,150.5 C 371.527,150.338 373.527,150.505 375.5,151C 377.515,152.555 377.848,154.389 376.5,156.5C 372.559,158.344 369.892,157.177 368.5,153C 368.743,152.098 369.077,151.265 369.5,150.5 Z"/></g>
<g><path style="opacity:1" fill="#ed3873" d="M 406.5,151.5 C 412.419,151.087 416.085,153.754 417.5,159.5C 416.783,163.525 414.45,165.025 410.5,164C 404.995,160.992 403.662,156.825 406.5,151.5 Z"/></g>
<g><path style="opacity:1" fill="#ec2e6f" d="M 462.5,153.5 C 474.29,152.762 478.79,158.096 476,169.5C 468.325,176.88 461.992,175.88 457,166.5C 456.114,160.946 457.947,156.613 462.5,153.5 Z"/></g>
<g><path style="opacity:1" fill="#ee3c76" d="M 343.5,154.5 C 349.488,154.664 350.821,157.164 347.5,162C 341.403,162.147 340.07,159.647 343.5,154.5 Z"/></g>
<g><path style="opacity:1" fill="#ed3673" d="M 362.5,154.5 C 366.73,153.831 368.563,155.498 368,159.5C 362.42,161.752 360.587,160.085 362.5,154.5 Z"/></g>
<g><path style="opacity:1" fill="#703178" d="M 72.5,158.5 C 75.6021,158.154 78.4355,158.821 81,160.5C 89.8311,176.167 99.1644,191.5 109,206.5C 109.127,191.798 109.794,177.132 111,162.5C 113.828,158.168 117.328,157.501 121.5,160.5C 118.721,166.887 116.888,173.554 116,180.5C 114.846,195.145 114.346,209.811 114.5,224.5C 111.956,224.896 109.789,224.229 108,222.5C 97.7491,206.334 87.7491,190 78,173.5C 77.5902,189.543 76.5902,205.543 75,221.5C 74.6258,222.416 74.1258,223.25 73.5,224C 70.7728,224.818 68.1062,224.652 65.5,223.5C 67.8498,218.079 69.3498,212.413 70,206.5C 71.5195,192.874 72.3529,179.207 72.5,165.5C 69.5,165.5 66.5,165.5 63.5,165.5C 63.5,163.833 63.5,162.167 63.5,160.5C 66.7273,160.324 69.7273,159.657 72.5,158.5 Z"/></g>
<g><path style="opacity:1" fill="#6f3178" d="M 168.5,160.5 C 170.833,160.5 173.167,160.5 175.5,160.5C 173.846,167.733 172.846,175.066 172.5,182.5C 176.5,182.5 180.5,182.5 184.5,182.5C 184.714,184.144 184.38,185.644 183.5,187C 179.514,187.499 175.514,187.666 171.5,187.5C 170.667,195.488 170.501,203.488 171,211.5C 171.707,213.081 172.54,214.581 173.5,216C 177.204,216.804 180.704,216.304 184,214.5C 185.682,215.865 185.849,217.365 184.5,219C 180.538,221.574 176.205,223.074 171.5,223.5C 166.871,222.367 164.038,219.367 163,214.5C 162.319,205.477 162.486,196.477 163.5,187.5C 161.076,187.808 158.743,187.474 156.5,186.5C 158.343,183.578 161.01,182.245 164.5,182.5C 164.999,177.508 165.499,172.508 166,167.5C 166.153,164.849 166.987,162.516 168.5,160.5 Z"/></g>
<g><path style="opacity:1" fill="#ee4078" d="M 357.5,159.5 C 361.485,159.629 362.818,161.463 361.5,165C 356.728,165.81 355.395,163.977 357.5,159.5 Z"/></g>
<g><path style="opacity:1" fill="#ed3170" d="M 422.5,159.5 C 430.738,159.966 434.238,164.299 433,172.5C 428.067,175.673 424.067,174.673 421,169.5C 418.739,165.654 419.239,162.32 422.5,159.5 Z"/></g>
<g><path style="opacity:1" fill="#c62e5f" d="M 369.5,168.5 C 376.369,168.538 378.869,171.871 377,178.5C 369.417,183.839 365.751,181.839 366,172.5C 366.69,170.65 367.856,169.316 369.5,168.5 Z"/></g>
<g><path style="opacity:1" fill="#703178" d="M 137.5,170.5 C 143.652,169.408 148.818,171.075 153,175.5C 154.443,180.212 153.277,184.045 149.5,187C 143.782,189.763 137.782,191.596 131.5,192.5C 130.203,202.37 134.536,206.87 144.5,206C 146.754,204.623 148.92,203.123 151,201.5C 152.158,201.998 152.991,202.831 153.5,204C 148.542,211.643 141.542,214.643 132.5,213C 120.487,204.309 118.32,193.476 126,180.5C 128.794,175.866 132.627,172.533 137.5,170.5 Z"/></g>
<g><path style="opacity:1" fill="#6f3078" d="M 229.5,169.5 C 237.658,168.823 241.158,172.49 240,180.5C 235.639,192.014 229.805,202.68 222.5,212.5C 220.955,213.452 219.288,213.785 217.5,213.5C 216.443,206.827 215.277,200.16 214,193.5C 210.365,199.965 206.532,206.298 202.5,212.5C 200.955,213.452 199.288,213.785 197.5,213.5C 196.093,199.966 193.093,186.799 188.5,174C 191.282,170.882 194.282,170.715 197.5,173.5C 200.305,182.32 202.472,191.32 204,200.5C 207.083,196.6 209.416,192.266 211,187.5C 211.082,183.104 210.749,178.77 210,174.5C 212.132,173.22 214.298,173.22 216.5,174.5C 219.464,183.353 221.964,192.353 224,201.5C 229.904,193.791 232.57,185.125 232,175.5C 230.441,173.783 229.608,171.783 229.5,169.5 Z"/></g>
<g><path style="opacity:1" fill="#6e2f77" d="M 256.5,170.5 C 271.834,171.784 278.001,180.117 275,195.5C 271.862,209.323 263.362,215.156 249.5,213C 246.333,211.167 243.833,208.667 242,205.5C 237.051,189.462 241.885,177.795 256.5,170.5 Z"/></g>
<g><path style="opacity:1" fill="#6f3178" d="M 292.5,179.5 C 291.371,181.628 291.204,183.961 292,186.5C 292.513,185.473 293.013,184.473 293.5,183.5C 295.136,178.025 298.47,173.858 303.5,171C 311.748,170.244 314.081,173.577 310.5,181C 308.51,180.862 306.51,180.362 304.5,179.5C 302.272,180.219 300.439,181.552 299,183.5C 294.149,192.572 291.315,202.239 290.5,212.5C 288.833,212.5 287.167,212.5 285.5,212.5C 283.744,211.448 283.077,209.781 283.5,207.5C 283.612,197.491 283.945,187.491 284.5,177.5C 281.833,177.5 279.167,177.5 276.5,177.5C 276.238,176.022 276.571,174.689 277.5,173.5C 280.736,172.191 284.069,171.191 287.5,170.5C 291.919,171.804 293.586,174.804 292.5,179.5 Z"/></g>
<g><path style="opacity:1" fill="#ed3170" d="M 438.5,172.5 C 445.687,172.687 449.687,176.353 450.5,183.5C 450.135,189.369 447.135,191.536 441.5,190C 435.483,186.282 433.65,181.116 436,174.5C 436.995,173.934 437.828,173.267 438.5,172.5 Z"/></g>
<g><path style="opacity:1" fill="#c52a5d" d="M 384.5,174.5 C 391.771,174.036 394.604,177.369 393,184.5C 389.399,189.321 385.399,189.654 381,185.5C 379.663,180.872 380.83,177.205 384.5,174.5 Z"/></g>
<g><path style="opacity:1" fill="#ec2d6e" d="M 481.5,173.5 C 494.881,174.259 499.214,180.926 494.5,193.5C 490.541,197.225 485.874,198.392 480.5,197C 470.849,188.73 471.182,180.897 481.5,173.5 Z"/></g>
<g><path style="opacity:1" fill="#f8f5f8" d="M 137.5,175.5 C 143.499,175.002 145.666,177.669 144,183.5C 140.021,187.085 135.521,188.085 130.5,186.5C 131.612,181.916 133.945,178.25 137.5,175.5 Z"/></g>
<g><path style="opacity:1" fill="#faf7fa" d="M 254.5,176.5 C 263.137,177.31 267.47,182.143 267.5,191C 267.213,196.831 265.546,202.164 262.5,207C 255.113,209.208 250.613,206.375 249,198.5C 247.025,190.073 248.858,182.74 254.5,176.5 Z"/></g>
<g><path style="opacity:1" fill="#c0a4c4" d="M 292.5,179.5 C 292.232,181.099 292.566,182.432 293.5,183.5C 293.013,184.473 292.513,185.473 292,186.5C 291.204,183.961 291.371,181.628 292.5,179.5 Z"/></g>
<g><path style="opacity:1" fill="#c52d5e" d="M 399.5,184.5 C 408.052,184.543 410.885,188.543 408,196.5C 401.329,202.54 396.829,201.207 394.5,192.5C 394.672,188.807 396.339,186.141 399.5,184.5 Z"/></g>
<g><path style="opacity:1" fill="#c4285d" d="M 358.5,186.5 C 364.643,187.026 365.976,189.86 362.5,195C 357.504,195.664 355.67,193.498 357,188.5C 357.717,187.956 358.217,187.289 358.5,186.5 Z"/></g>
<g><path style="opacity:1" fill="#c52c5e" d="M 368.5,191.5 C 375.628,191.706 377.294,194.873 373.5,201C 367.498,201.993 365.332,199.493 367,193.5C 367.717,192.956 368.217,192.289 368.5,191.5 Z"/></g>
<g><path style="opacity:1" fill="#ec2d6e" d="M 452.5,191.5 C 458.347,190.84 462.513,193.173 465,198.5C 465.667,201.833 465.667,205.167 465,208.5C 462.947,212.292 459.781,213.458 455.5,212C 447.635,206.108 446.635,199.274 452.5,191.5 Z"/></g>
<g><path style="opacity:1" fill="#c52b5d" d="M 413.5,198.5 C 420.935,198.435 424.435,202.102 424,209.5C 421.549,215.089 417.383,216.922 411.5,215C 405.799,208.711 406.465,203.211 413.5,198.5 Z"/></g>
<g><path style="opacity:1" fill="#ec2d6e" d="M 497.5,200.5 C 510.741,201.642 515.575,208.642 512,221.5C 505.473,229.897 498.306,230.564 490.5,223.5C 484.736,213.173 487.069,205.507 497.5,200.5 Z"/></g>
<g><path style="opacity:1" fill="#c73262" d="M 361.5,207.5 C 365.976,207.822 367.476,210.156 366,214.5C 362.509,217.446 360.342,216.612 359.5,212C 359.519,210.167 360.185,208.667 361.5,207.5 Z"/></g>
<g><path style="opacity:1" fill="#a780ac" d="M 283.5,207.5 C 283.077,209.781 283.744,211.448 285.5,212.5C 284.791,213.404 283.791,213.737 282.5,213.5C 282.205,211.265 282.539,209.265 283.5,207.5 Z"/></g>
<g><path style="opacity:1" fill="#c63261" d="M 387.5,210.5 C 398.202,210.521 400.202,214.688 393.5,223C 384.187,222.496 382.187,218.329 387.5,210.5 Z"/></g>
<g><path style="opacity:1" fill="#c73563" d="M 368.5,214.5 C 371.85,214.651 373.516,216.485 373.5,220C 373.388,224.803 371.221,226.303 367,224.5C 364.729,220.697 365.229,217.363 368.5,214.5 Z"/></g>
<g><path style="opacity:1" fill="#ec2c6e" d="M 463.5,216.5 C 475.624,216.355 480.457,222.355 478,234.5C 473.47,241.588 468.137,242.255 462,236.5C 456.829,229.249 457.329,222.582 463.5,216.5 Z"/></g>
<g><path style="opacity:1" fill="#c4285c" d="M 424.5,217.5 C 434.157,216.658 437.99,220.991 436,230.5C 430.247,238.393 424.581,238.393 419,230.5C 417.571,224.7 419.404,220.367 424.5,217.5 Z"/></g>
<g><path style="opacity:1" fill="#c62f5f" d="M 396.5,224.5 C 404.098,224.334 406.931,228.001 405,235.5C 402.839,239.124 399.672,240.291 395.5,239C 389.99,233.73 390.323,228.897 396.5,224.5 Z"/></g>
<g><path style="opacity:1" fill="#c73362" d="M 373.5,225.5 C 377.58,225.081 379.58,226.914 379.5,231C 379.694,234.788 378.027,237.288 374.5,238.5C 369.517,234.632 369.184,230.298 373.5,225.5 Z"/></g>
<g><path style="opacity:1" fill="#703178" d="M 152.5,268.5 C 151.371,270.628 151.204,272.961 152,275.5C 152.513,274.473 153.013,273.473 153.5,272.5C 155.158,267.345 158.158,263.178 162.5,260C 170.246,259.063 172.579,262.063 169.5,269C 167.632,269.004 165.798,268.504 164,267.5C 158.444,270.925 155.111,275.925 154,282.5C 152.202,287.689 151.369,293.022 151.5,298.5C 149.833,298.5 148.167,298.5 146.5,298.5C 144.586,295.316 143.92,291.649 144.5,287.5C 144.5,280.5 144.5,273.5 144.5,266.5C 140.167,266.5 135.833,266.5 131.5,266.5C 131.866,280.707 130.366,294.707 127,308.5C 123.008,321.91 114.508,326.41 101.5,322C 98.4672,318.094 99.3005,315.261 104,313.5C 110.344,320.689 115.677,320.022 120,311.5C 123.05,296.672 124.217,281.672 123.5,266.5C 121.167,266.5 118.833,266.5 116.5,266.5C 116.33,265.178 116.663,264.011 117.5,263C 119.74,262.023 122.073,261.523 124.5,261.5C 123.506,250.576 126.173,240.742 132.5,232C 139.359,226.697 146.525,226.197 154,230.5C 156.386,234.794 155.886,238.627 152.5,242C 151.167,242.667 149.833,242.667 148.5,242C 147.718,239.26 147.218,236.426 147,233.5C 144.373,231.012 141.54,230.845 138.5,233C 136.348,235.469 134.848,238.302 134,241.5C 132.79,248.112 132.29,254.778 132.5,261.5C 139.202,261.664 145.869,261.331 152.5,260.5C 152.5,263.167 152.5,265.833 152.5,268.5 Z"/></g>
<g><path style="opacity:1" fill="#c83663" d="M 377.5,239.5 C 381.489,239.489 383.489,241.489 383.5,245.5C 383.744,250.302 381.578,253.302 377,254.5C 371.842,251.022 371.175,246.688 375,241.5C 375.995,240.934 376.828,240.267 377.5,239.5 Z"/></g>
<g><path style="opacity:1" fill="#c4285c" d="M 431.5,240.5 C 442.041,239.539 446.541,244.205 445,254.5C 440.995,261.502 435.495,263.002 428.5,259C 423.869,251.916 424.869,245.749 431.5,240.5 Z"/></g>
<g><path style="opacity:1" fill="#6f3078" d="M 87.5,241.5 C 90.1194,241.232 92.6194,241.565 95,242.5C 97.3417,260.238 101.342,277.572 107,294.5C 110.678,295.641 114.178,297.141 117.5,299C 112.977,302.173 107.977,303.173 102.5,302C 100.383,300.269 98.8834,298.102 98,295.5C 96.4988,290.161 94.9988,284.828 93.5,279.5C 87.5368,278.504 81.5368,278.171 75.5,278.5C 73.379,286.7 70.379,294.533 66.5,302C 64.1902,302.497 61.8568,302.663 59.5,302.5C 68.003,281.825 77.3363,261.491 87.5,241.5 Z"/></g>
<g><path style="opacity:1" fill="#6f2f77" d="M 175.5,243.5 C 183.523,243.161 185.856,246.495 182.5,253.5C 177.046,255.935 173.712,254.268 172.5,248.5C 172.757,246.308 173.757,244.641 175.5,243.5 Z"/></g>
<g><path style="opacity:1" fill="#c62f5f" d="M 401.5,242.5 C 409.696,242.529 412.863,246.529 411,254.5C 407.987,259.535 403.82,260.702 398.5,258C 393.92,251.736 394.92,246.569 401.5,242.5 Z"/></g>
<g><path style="opacity:1" fill="#f8f5f8" d="M 87.5,250.5 C 89.8375,257.869 91.1709,265.536 91.5,273.5C 87.1161,273.826 82.7828,273.492 78.5,272.5C 81.5063,265.143 84.5063,257.809 87.5,250.5 Z"/></g>
<g><path style="opacity:1" fill="#c52c5e" d="M 376.5,257.5 C 381.768,256.139 384.434,258.139 384.5,263.5C 384.193,268.806 381.526,272.139 376.5,273.5C 373.14,272.467 371.473,270.134 371.5,266.5C 371.904,262.771 373.571,259.771 376.5,257.5 Z"/></g>
<g><path style="opacity:1" fill="#703279" d="M 203.5,263.5 C 207.182,263.335 210.848,263.501 214.5,264C 219.143,266.072 220.643,269.572 219,274.5C 216.833,276.464 214.499,276.798 212,275.5C 212.701,269.533 210.201,267.033 204.5,268C 198.148,273.393 195.981,280.227 198,288.5C 200.157,295.339 204.657,297.839 211.5,296C 213.596,294.234 215.929,292.901 218.5,292C 223.374,283.745 230.707,279.912 240.5,280.5C 242.506,271.684 239.173,267.85 230.5,269C 227.966,271.587 227.966,274.253 230.5,277C 224.226,280.226 221.393,278.393 222,271.5C 226.772,264.704 233.272,262.204 241.5,264C 244.973,264.807 247.14,266.973 248,270.5C 248.167,272.667 248.333,274.833 248.5,277C 247.695,283.159 247.528,289.326 248,295.5C 250.088,299.179 252.755,299.512 256,296.5C 258.113,298.271 257.947,299.771 255.5,301C 247.29,305.807 242.123,303.641 240,294.5C 236.442,301.195 230.942,304.029 223.5,303C 220.894,301.062 219.061,298.562 218,295.5C 210.33,305.122 201.996,305.788 193,297.5C 186.535,283.062 190.035,271.729 203.5,263.5 Z"/></g>
<g><path style="opacity:1" fill="#72357a" d="M 175.5,264.5 C 177.833,264.5 180.167,264.5 182.5,264.5C 181.458,275.144 181.291,285.811 182,296.5C 184.774,297.523 187.607,297.523 190.5,296.5C 190.67,297.822 190.337,298.989 189.5,300C 185.514,302.665 181.181,303.665 176.5,303C 176,302.5 175.5,302 175,301.5C 172.964,289.114 173.131,276.781 175.5,264.5 Z"/></g>
<g><path style="opacity:1" fill="#c52d5e" d="M 401.5,264.5 C 412.809,264.285 416.309,269.285 412,279.5C 403.925,285.55 398.425,283.716 395.5,274C 396.142,269.863 398.142,266.697 401.5,264.5 Z"/></g>
<g><path style="opacity:1" fill="#c42a5d" d="M 434.5,267.5 C 448.123,266.935 452.623,272.935 448,285.5C 443.175,290.943 437.675,291.777 431.5,288C 425.514,280.085 426.514,273.251 434.5,267.5 Z"/></g>
<g><path style="opacity:1" fill="#ab87b0" d="M 152.5,268.5 C 152.232,270.099 152.566,271.432 153.5,272.5C 153.013,273.473 152.513,274.473 152,275.5C 151.204,272.961 151.371,270.628 152.5,268.5 Z"/></g>
<g><path style="opacity:1" fill="#c62e5f" d="M 372.5,277.5 C 377.713,276.762 380.713,278.928 381.5,284C 380.807,290.267 377.473,294.1 371.5,295.5C 367.427,295.054 365.427,292.72 365.5,288.5C 366.092,283.633 368.425,279.966 372.5,277.5 Z"/></g>
<g><path style="opacity:1" fill="#f3eef4" d="M 234.5,284.5 C 236.167,284.5 237.833,284.5 239.5,284.5C 238.713,290.447 235.546,294.447 230,296.5C 225.579,293.835 225.412,290.668 229.5,287C 231.315,286.243 232.981,285.41 234.5,284.5 Z"/></g>
<g><path style="opacity:1" fill="#c4295d" d="M 397.5,288.5 C 409.362,287.86 413.529,293.193 410,304.5C 402.199,311.922 395.866,310.922 391,301.5C 390.509,295.816 392.675,291.482 397.5,288.5 Z"/></g>
<g><path style="opacity:1" fill="#ac88b1" d="M 144.5,287.5 C 143.92,291.649 144.586,295.316 146.5,298.5C 145.791,299.404 144.791,299.737 143.5,299.5C 143.183,295.298 143.517,291.298 144.5,287.5 Z"/></g>
<g><path style="opacity:1" fill="#c52b5d" d="M 361.5,299.5 C 372.513,299.508 375.346,304.508 370,314.5C 365.423,319.991 360.423,320.658 355,316.5C 353.121,313.2 353.121,309.866 355,306.5C 356.694,303.642 358.861,301.309 361.5,299.5 Z"/></g>
<g><path style="opacity:1" fill="#c52b5d" d="M 388.5,313.5 C 401.241,314.331 405.408,320.664 401,332.5C 396.318,337.523 390.818,338.689 384.5,336C 376.83,326.851 378.163,319.351 388.5,313.5 Z"/></g>
<g><path style="opacity:1" fill="#6d2f75" d="M 65.5,331.5 C 145.203,331.014 224.87,331.514 304.5,333C 323.205,337.371 335.039,348.871 340,367.5C 340.667,376.167 340.667,384.833 340,393.5C 337.458,400.862 332.292,405.028 324.5,406C 238.833,406.667 153.167,406.667 67.5,406C 59.9649,403.798 55.1316,398.965 53,391.5C 52.3333,375.833 52.3333,360.167 53,344.5C 55.3531,338.315 59.5198,333.982 65.5,331.5 Z"/></g>
<g><path style="opacity:1" fill="#c52b5d" d="M 371.5,339.5 C 384.415,340.335 389.249,347.002 386,359.5C 380.532,366.794 373.699,368.294 365.5,364C 357.428,353.314 359.428,345.147 371.5,339.5 Z"/></g>
<g><path style="opacity:1" fill="#f8f5f8" d="M 71.5,345.5 C 78.1667,345.5 84.8333,345.5 91.5,345.5C 91.5,346.833 91.5,348.167 91.5,349.5C 86.8333,349.5 82.1667,349.5 77.5,349.5C 77.5,354.833 77.5,360.167 77.5,365.5C 79.8568,365.337 82.1902,365.503 84.5,366C 85.8333,367 85.8333,368 84.5,369C 81.7737,369.182 79.1071,369.682 76.5,370.5C 77.6349,378.451 77.8016,386.451 77,394.5C 75.3005,395.406 73.4672,395.739 71.5,395.5C 69.6382,379.56 69.1382,363.56 70,347.5C 70.7172,346.956 71.2172,346.289 71.5,345.5 Z"/></g>
<g><path style="opacity:1" fill="#f9f7fa" d="M 189.5,345.5 C 191.467,345.261 193.301,345.594 195,346.5C 195.667,362.5 195.667,378.5 195,394.5C 193.301,395.406 191.467,395.739 189.5,395.5C 189.248,390.481 188.748,385.481 188,380.5C 186.803,383.089 185.803,385.756 185,388.5C 181,393.833 177,393.833 173,388.5C 168.456,376.495 171.623,367.328 182.5,361C 184.134,360.506 185.801,360.34 187.5,360.5C 187.878,355.42 188.545,350.42 189.5,345.5 Z"/></g>
<g><path style="opacity:1" fill="#f9f6f9" d="M 232.5,345.5 C 234.722,345.178 236.556,345.845 238,347.5C 238.498,350.817 238.665,354.15 238.5,357.5C 240.5,357.5 242.5,357.5 244.5,357.5C 244.5,358.833 244.5,360.167 244.5,361.5C 242.5,361.5 240.5,361.5 238.5,361.5C 236.932,370.945 237.432,380.278 240,389.5C 242.369,391.908 244.869,391.908 247.5,389.5C 248.308,389.808 248.975,390.308 249.5,391C 243.81,397.138 238.31,396.971 233,390.5C 230.055,381.06 228.888,371.393 229.5,361.5C 227.335,361.884 225.668,361.217 224.5,359.5C 226.023,357.717 228.023,357.051 230.5,357.5C 229.99,353.187 230.657,349.187 232.5,345.5 Z"/></g>
<g><path style="opacity:1" fill="#f9f7fa" d="M 217.5,356.5 C 221.58,356.081 223.58,357.914 223.5,362C 222.581,372.81 222.248,383.644 222.5,394.5C 220.533,394.739 218.699,394.406 217,393.5C 216.461,390.471 215.794,387.471 215,384.5C 213.477,392.057 209.31,394.224 202.5,391C 196.143,380.295 197.476,370.628 206.5,362C 209.444,361.03 212.444,360.196 215.5,359.5C 216.193,358.482 216.859,357.482 217.5,356.5 Z"/></g>
<g><path style="opacity:1" fill="#f6f2f6" d="M 131.5,357.5 C 133.262,357.357 134.929,357.691 136.5,358.5C 137.666,370.486 137.833,382.486 137,394.5C 135.604,396.527 133.938,396.86 132,395.5C 130.964,392.247 130.297,388.914 130,385.5C 123.908,395.135 118.574,394.801 114,384.5C 113.076,377.392 113.409,370.392 115,363.5C 117.267,362.065 119.267,362.398 121,364.5C 121.143,368.651 120.977,372.818 120.5,377C 120.383,380.67 121.049,384.17 122.5,387.5C 125.95,384.271 128.117,380.271 129,375.5C 129.032,369.324 129.865,363.324 131.5,357.5 Z"/></g>
<g><path style="opacity:1" fill="#f9f7fa" d="M 149.5,365.5 C 148.362,368.304 148.195,371.304 149,374.5C 149.513,373.473 150.013,372.473 150.5,371.5C 151.377,366.136 154.043,361.969 158.5,359C 163.596,357.42 166.763,359.254 168,364.5C 168.667,373.833 168.667,383.167 168,392.5C 166.776,395.473 164.776,396.14 162,394.5C 161.976,384.008 161.309,373.674 160,363.5C 153.569,372.789 149.903,383.122 149,394.5C 147.333,395.833 145.667,395.833 144,394.5C 141.616,383.292 140.949,371.959 142,360.5C 147.362,357.329 149.862,358.996 149.5,365.5 Z"/></g>
<g><path style="opacity:1" fill="#f6f2f6" d="M 253.5,351.5 C 256.244,351.2 257.911,352.367 258.5,355C 258.561,356.711 257.894,358.044 256.5,359C 257,359.5 257.5,360 258,360.5C 258.667,371.5 258.667,382.5 258,393.5C 256.604,395.527 254.938,395.86 253,394.5C 250.551,383.634 249.885,372.634 251,361.5C 251.5,360.333 252.333,359.5 253.5,359C 250.914,356.506 250.914,354.006 253.5,351.5 Z"/></g>
<g><path style="opacity:1" fill="#f9f6f9" d="M 289.5,358.5 C 291.144,358.286 292.644,358.62 294,359.5C 294.333,364.167 294.667,368.833 295,373.5C 296.685,367.959 299.518,363.126 303.5,359C 310.022,357.181 313.522,359.681 314,366.5C 314.717,375.536 314.384,384.536 313,393.5C 311.604,395.527 309.938,395.86 308,394.5C 307.667,384.833 307.333,375.167 307,365.5C 306.692,364.692 306.192,364.025 305.5,363.5C 299.269,372.857 295.602,383.191 294.5,394.5C 292.958,395.747 291.458,395.747 290,394.5C 286.93,384.713 285.93,374.713 287,364.5C 287.236,362.189 288.069,360.189 289.5,358.5 Z"/></g>
<g><path style="opacity:1" fill="#f7f4f8" d="M 95.5,359.5 C 102.885,358.6 107.718,361.6 110,368.5C 112.259,377.948 110.092,386.114 103.5,393C 95.4035,394.26 90.5701,390.76 89,382.5C 89.3712,376.871 89.3712,371.205 89,365.5C 90.8725,363.153 93.0392,361.153 95.5,359.5 Z"/></g>
<g><path style="opacity:1" fill="#f8f5f8" d="M 268.5,359.5 C 276.933,358.629 282.1,362.295 284,370.5C 285.485,379.378 282.985,386.878 276.5,393C 269.217,394.607 264.717,391.774 263,384.5C 262.277,378.161 261.943,371.828 262,365.5C 264.063,363.266 266.229,361.266 268.5,359.5 Z"/></g>
<g><path style="opacity:1" fill="#713478" d="M 97.5,363.5 C 101.923,363.744 104.756,366.078 106,370.5C 106.696,374.905 106.363,379.239 105,383.5C 104.218,386.076 102.718,388.076 100.5,389.5C 99.5224,389.023 98.6891,388.357 98,387.5C 95.9649,381.61 96.1315,375.777 98.5,370C 98.5053,367.837 97.5053,366.337 95.5,365.5C 96.2427,364.818 96.9094,364.151 97.5,363.5 Z"/></g>
<g><path style="opacity:1" fill="#6f3177" d="M 270.5,363.5 C 274.526,363.677 277.359,365.677 279,369.5C 279.951,375.373 279.285,381.04 277,386.5C 274.911,390.46 272.911,390.46 271,386.5C 270.288,380.972 270.454,375.472 271.5,370C 271.646,367.812 270.646,366.479 268.5,366C 269.381,365.292 270.047,364.458 270.5,363.5 Z"/></g>
<g><path style="opacity:1" fill="#723579" d="M 183.5,365.5 C 184.5,365.5 185.5,365.5 186.5,365.5C 185.726,373.602 183.559,381.269 180,388.5C 177.272,380.204 178.439,372.537 183.5,365.5 Z"/></g>
<g><path style="opacity:1" fill="#713579" d="M 213.5,364.5 C 214.695,364.866 215.361,365.699 215.5,367C 214.053,374.175 211.72,381.009 208.5,387.5C 205.986,378.777 207.653,371.111 213.5,364.5 Z"/></g>
<g><path style="opacity:1" fill="#b391b6" d="M 149.5,365.5 C 149.205,367.735 149.539,369.735 150.5,371.5C 150.013,372.473 149.513,373.473 149,374.5C 148.195,371.304 148.362,368.304 149.5,365.5 Z"/></g>
<g><path style="opacity:1" fill="#cb416b" d="M 126.5,439.5 C 127.552,439.351 128.552,439.517 129.5,440C 127.623,447.718 126.123,455.551 125,463.5C 124.29,464.973 123.124,465.64 121.5,465.5C 123.17,456.802 124.836,448.136 126.5,439.5 Z"/></g>
<g><path style="opacity:1" fill="#c83966" d="M 184.5,439.5 C 186.288,439.215 187.955,439.548 189.5,440.5C 186.507,441.493 184.507,443.493 183.5,446.5C 184.833,447.167 186.167,447.833 187.5,448.5C 186.009,449.244 184.509,449.91 183,450.5C 182.026,455.489 181.192,460.489 180.5,465.5C 179.5,465.5 178.5,465.5 177.5,465.5C 177.795,460.527 178.795,455.694 180.5,451C 179.978,450.05 179.311,449.216 178.5,448.5C 180.503,445.467 182.503,442.467 184.5,439.5 Z"/></g>
<g><path style="opacity:1" fill="#cb416b" d="M 302.5,439.5 C 303.675,439.281 304.675,439.614 305.5,440.5C 303.862,448.458 302.362,456.458 301,464.5C 299.989,465.337 298.822,465.67 297.5,465.5C 298.982,456.795 300.648,448.129 302.5,439.5 Z"/></g>
<g><path style="opacity:1" fill="#cc456e" d="M 62.5,440.5 C 66.3751,440.085 70.0418,440.585 73.5,442C 70.3618,443.244 67.0284,443.911 63.5,444C 61,445.167 59.1667,447 58,449.5C 55.2991,459.793 58.9658,463.793 69,461.5C 69.6838,462.784 69.5171,463.951 68.5,465C 55.8992,466.337 51.3992,460.837 55,448.5C 57.0282,445.308 59.5282,442.641 62.5,440.5 Z"/></g>
<g><path style="opacity:1" fill="#ca3e6a" d="M 229.5,440.5 C 244.882,439.032 249.715,445.365 244,459.5C 238.976,464.785 232.81,466.785 225.5,465.5C 226.317,457.08 227.651,448.747 229.5,440.5 Z"/></g>
<g><path style="opacity:1" fill="#cd4a71" d="M 95.5,443.5 C 96.5,443.5 97.5,443.5 98.5,443.5C 98.5,444.833 98.5,446.167 98.5,447.5C 99.8333,447.5 101.167,447.5 102.5,447.5C 102.5,448.5 102.5,449.5 102.5,450.5C 100.833,450.5 99.1667,450.5 97.5,450.5C 96.9791,454.481 96.6458,458.481 96.5,462.5C 97.5,462.5 98.5,462.5 99.5,462.5C 99.5,463.5 99.5,464.5 99.5,465.5C 96.9556,465.896 94.7889,465.229 93,463.5C 92.7111,459.599 93.2111,455.766 94.5,452C 93.2927,450.7 92.6261,449.2 92.5,447.5C 93.5,447.5 94.5,447.5 95.5,447.5C 95.5,446.167 95.5,444.833 95.5,443.5 Z"/></g>
<g><path style="opacity:1" fill="#c93c68" d="M 163.5,443.5 C 164.5,443.5 165.5,443.5 166.5,443.5C 166.5,444.833 166.5,446.167 166.5,447.5C 167.978,447.238 169.311,447.571 170.5,448.5C 169.332,450.217 167.665,450.884 165.5,450.5C 164.514,454.443 163.848,458.443 163.5,462.5C 164.5,462.5 165.5,462.5 166.5,462.5C 166.5,463.5 166.5,464.5 166.5,465.5C 164.278,465.822 162.444,465.155 161,463.5C 160.462,459.557 160.962,455.724 162.5,452C 161.293,450.7 160.626,449.2 160.5,447.5C 161.5,447.5 162.5,447.5 163.5,447.5C 163.5,446.167 163.5,444.833 163.5,443.5 Z"/></g>
<g><path style="opacity:1" fill="#fdfafb" d="M 231.5,443.5 C 242.14,442.121 245.64,446.455 242,456.5C 239.039,462.19 234.539,463.857 228.5,461.5C 230.057,455.598 231.057,449.598 231.5,443.5 Z"/></g>
<g><path style="opacity:1" fill="#cc456e" d="M 412.5,443.5 C 413.5,443.5 414.5,443.5 415.5,443.5C 415.5,444.833 415.5,446.167 415.5,447.5C 416.833,447.5 418.167,447.5 419.5,447.5C 419.5,448.5 419.5,449.5 419.5,450.5C 417.833,450.5 416.167,450.5 414.5,450.5C 414.17,453.157 413.837,455.824 413.5,458.5C 414.021,460.924 414.688,463.257 415.5,465.5C 413.278,465.822 411.444,465.155 410,463.5C 409.711,459.599 410.211,455.766 411.5,452C 410.293,450.7 409.626,449.2 409.5,447.5C 410.5,447.5 411.5,447.5 412.5,447.5C 412.5,446.167 412.5,444.833 412.5,443.5 Z"/></g>
<g><path style="opacity:1" fill="#ca3f6a" d="M 80.5,447.5 C 83.5,447.5 86.5,447.5 89.5,447.5C 87.9345,453.384 87.2678,459.384 87.5,465.5C 86.5,465.5 85.5,465.5 84.5,465.5C 84.6567,464.127 84.49,462.793 84,461.5C 80.6453,466.31 76.9786,466.644 73,462.5C 72.3062,455.888 74.8062,450.888 80.5,447.5 Z"/></g>
<g><path style="opacity:1" fill="#ca406a" d="M 110.5,447.5 C 113.5,447.5 116.5,447.5 119.5,447.5C 118.043,453.401 117.376,459.401 117.5,465.5C 116.5,465.5 115.5,465.5 114.5,465.5C 114.79,461.446 114.123,460.946 112.5,464C 105.295,466.803 102.128,464.303 103,456.5C 104.642,452.7 107.142,449.7 110.5,447.5 Z"/></g>
<g><path style="opacity:1" fill="#cb436d" d="M 150.5,447.5 C 152.924,447.192 155.257,447.526 157.5,448.5C 157.192,449.308 156.692,449.975 156,450.5C 153.52,448.91 151.687,449.41 150.5,452C 153.003,454.262 155.003,456.929 156.5,460C 154.848,464.826 151.515,466.493 146.5,465C 146.043,464.586 145.709,464.086 145.5,463.5C 147.743,462.526 150.076,462.192 152.5,462.5C 152.657,461.127 152.49,459.793 152,458.5C 146.759,455.26 146.259,451.593 150.5,447.5 Z"/></g>
<g><path style="opacity:1" fill="#c93a67" d="M 193.5,447.5 C 203.467,447.44 206.3,452.106 202,461.5C 198.21,465.854 193.877,466.521 189,463.5C 186.159,456.871 187.659,451.538 193.5,447.5 Z"/></g>
<g><path style="opacity:1" fill="#ca3f6a" d="M 255.5,447.5 C 261.496,446.333 263.996,448.666 263,454.5C 259.922,456.931 256.422,457.931 252.5,457.5C 252.286,459.144 252.62,460.644 253.5,462C 256.226,462.182 258.893,462.682 261.5,463.5C 251.835,467.349 248.002,464.015 250,453.5C 251.36,450.977 253.193,448.977 255.5,447.5 Z"/></g>
<g><path style="opacity:1" fill="#ca3f6a" d="M 287.5,447.5 C 290.685,447.02 293.519,447.686 296,449.5C 296.92,452.308 296.087,454.475 293.5,456C 290.568,456.953 287.568,457.453 284.5,457.5C 284.421,458.93 284.754,460.264 285.5,461.5C 288.167,462.167 290.833,462.833 293.5,463.5C 284.456,467.383 280.623,464.383 282,454.5C 283.371,451.734 285.204,449.401 287.5,447.5 Z"/></g>
<g><path style="opacity:1" fill="#c83865" d="M 312.5,447.5 C 318.678,446.032 322.011,448.365 322.5,454.5C 321.421,463.783 316.588,466.783 308,463.5C 304.994,456.771 306.494,451.438 312.5,447.5 Z"/></g>
<g><path style="opacity:1" fill="#ca3d69" d="M 327.5,447.5 C 329.124,447.36 330.29,448.027 331,449.5C 339.521,445.343 342.854,448.009 341,457.5C 338.731,463.886 334.231,466.552 327.5,465.5C 327.007,467.806 326.674,470.139 326.5,472.5C 325.5,472.5 324.5,472.5 323.5,472.5C 324.673,464.143 326.006,455.809 327.5,447.5 Z"/></g>
<g><path style="opacity:1" fill="#ca3e69" d="M 346.5,447.5 C 348.124,447.36 349.29,448.027 350,449.5C 353.624,446.531 356.79,446.864 359.5,450.5C 361.933,447.758 364.933,446.925 368.5,448C 369.641,453.468 369.475,458.968 368,464.5C 366.989,465.337 365.822,465.67 364.5,465.5C 366.071,460.603 366.571,455.603 366,450.5C 362.617,449.481 360.283,450.815 359,454.5C 358.064,458.114 357.564,461.78 357.5,465.5C 356.5,465.5 355.5,465.5 354.5,465.5C 354.603,461.251 355.27,457.084 356.5,453C 356.719,451.029 355.885,449.862 354,449.5C 348.837,452.606 346.504,457.273 347,463.5C 346.29,464.973 345.124,465.64 343.5,465.5C 344.501,459.496 345.501,453.496 346.5,447.5 Z"/></g>
<g><path style="opacity:1" fill="#ca3f6a" d="M 378.5,447.5 C 385.468,445.971 388.135,448.471 386.5,455C 383.464,457.006 380.131,457.84 376.5,457.5C 376.286,459.144 376.62,460.644 377.5,462C 380.226,462.182 382.893,462.682 385.5,463.5C 375.79,467.3 371.957,463.967 374,453.5C 375.332,451.34 376.832,449.34 378.5,447.5 Z"/></g>
<g><path style="opacity:1" fill="#ca406a" d="M 130.5,447.5 C 131.675,447.281 132.675,447.614 133.5,448.5C 134.606,452.135 135.606,455.802 136.5,459.5C 138.861,456.112 140.694,452.446 142,448.5C 143.183,447.269 144.349,447.269 145.5,448.5C 142.255,455.324 138.755,461.991 135,468.5C 133.06,471.402 130.56,472.402 127.5,471.5C 129.387,469.96 131.22,468.293 133,466.5C 133.403,460.013 132.57,453.68 130.5,447.5 Z"/></g>
<g><path style="opacity:1" fill="#ca3f6a" d="M 208.5,447.5 C 209.5,447.5 210.5,447.5 211.5,447.5C 211.351,448.552 211.517,449.552 212,450.5C 213.268,447.938 215.102,447.272 217.5,448.5C 216.345,449.95 214.845,450.95 213,451.5C 210.755,455.887 209.589,460.554 209.5,465.5C 208.5,465.5 207.5,465.5 206.5,465.5C 207.167,459.5 207.833,453.5 208.5,447.5 Z"/></g>
<g><path style="opacity:1" fill="#c83866" d="M 266.5,447.5 C 267.5,447.5 268.5,447.5 269.5,447.5C 269.757,451.892 270.424,456.225 271.5,460.5C 273.921,456.66 276.088,452.66 278,448.5C 279.183,447.269 280.349,447.269 281.5,448.5C 278.49,454.531 274.99,460.197 271,465.5C 270.228,465.355 269.561,465.022 269,464.5C 268.165,458.823 267.331,453.156 266.5,447.5 Z"/></g>
<g><path style="opacity:1" fill="#ca3e69" d="M 391.5,447.5 C 392.5,447.5 393.5,447.5 394.5,447.5C 394.351,448.552 394.517,449.552 395,450.5C 398.048,446.99 401.381,446.657 405,449.5C 405.053,454.861 404.553,460.195 403.5,465.5C 402.5,465.5 401.5,465.5 400.5,465.5C 400.603,461.251 401.27,457.084 402.5,453C 401.738,449.189 399.738,448.522 396.5,451C 393.738,455.359 392.404,460.193 392.5,465.5C 391.5,465.5 390.5,465.5 389.5,465.5C 390.26,459.511 390.927,453.511 391.5,447.5 Z"/></g>
<g><path style="opacity:1" fill="#fdf6f8" d="M 81.5,449.5 C 82.8333,449.5 84.1667,449.5 85.5,449.5C 85.9111,453.463 85.0778,457.13 83,460.5C 81.2111,462.229 79.0444,462.896 76.5,462.5C 75.3756,456.959 77.0423,452.626 81.5,449.5 Z"/></g>
<g><path style="opacity:1" fill="#fdf7f9" d="M 111.5,449.5 C 113.288,449.215 114.955,449.548 116.5,450.5C 115.699,454.745 114.032,458.579 111.5,462C 109.866,462.494 108.199,462.66 106.5,462.5C 106.336,459.813 106.503,457.146 107,454.5C 108.707,452.963 110.207,451.296 111.5,449.5 Z"/></g>
<g><path style="opacity:1" fill="#fcf6f8" d="M 194.5,449.5 C 198.58,449.081 200.58,450.914 200.5,455C 200.35,461.332 197.35,463.499 191.5,461.5C 189.728,456.79 190.728,452.79 194.5,449.5 Z"/></g>
<g><path style="opacity:1" fill="#fcf6f8" d="M 256.5,449.5 C 260.161,449.35 261.161,450.85 259.5,454C 253.152,455.133 252.152,453.633 256.5,449.5 Z"/></g>
<g><path style="opacity:1" fill="#fbeef2" d="M 288.5,449.5 C 292.419,448.746 293.753,450.08 292.5,453.5C 286.006,455.452 284.672,454.118 288.5,449.5 Z"/></g>
<g><path style="opacity:1" fill="#fdf7f9" d="M 313.5,449.5 C 317.338,449.007 319.338,450.674 319.5,454.5C 319.431,461.423 316.265,463.756 310,461.5C 308.745,456.738 309.912,452.738 313.5,449.5 Z"/></g>
<g><path style="opacity:1" fill="#fdf7f9" d="M 333.5,449.5 C 335.39,449.297 336.89,449.963 338,451.5C 339.244,459.085 336.077,462.751 328.5,462.5C 328.226,457.388 329.892,453.055 333.5,449.5 Z"/></g>
<g><path style="opacity:1" fill="#fcf3f6" d="M 380.5,449.5 C 383.68,449.176 384.847,450.51 384,453.5C 381.959,454.423 379.792,454.756 377.5,454.5C 377.31,452.041 378.31,450.374 380.5,449.5 Z"/></g>
</svg>
